<svg xmlns="http://www.w3.org/2000/svg" width="24" height="24" fill="none" viewBox="0 0 24 24" id="globe-off"><path fill="#000" fill-rule="evenodd" d="M1.29289 1.29289C1.68342 0.902369 2.31658 0.902369 2.70711 1.29289L22.7071 21.2929C23.0976 21.6834 23.0976 22.3166 22.7071 22.7071C22.3166 23.0976 21.6834 23.0976 21.2929 22.7071L19.039 20.4532C17.9333 21.375 16.6439 22.0839 15.2338 22.5169C14.792 22.6526 14.4594 22.1304 14.6975 21.7343C14.8529 21.4757 14.9995 21.2076 15.1371 20.9324C15.6105 19.9855 16.0061 18.9037 16.3092 17.7234L14.6334 16.0476C14.345 17.577 13.9002 18.934 13.3482 20.038C13.2913 20.1518 13.2338 20.262 13.1758 20.3687C12.6435 21.3466 11.3565 21.3466 10.8243 20.3687C10.7662 20.262 10.7087 20.1518 10.6518 20.038C9.81146 18.3574 9.21952 16.0902 9.04982 13.5212C9.03107 13.2372 9.25882 13 9.5434 13H11.5857L9.58574 11H9.54339C9.25882 11 9.03107 10.7627 9.04982 10.4787L9.05074 10.465L7.22802 8.64224C7.14323 9.25251 7.08118 9.87964 7.0434 10.5198C7.02759 10.7878 6.80759 11 6.53915 11H1.59193C1.29807 11 1.06661 10.7472 1.10748 10.4562C1.39865 8.38298 2.26777 6.49516 3.54671 4.96093L1.29289 2.70711C0.902369 2.31658 0.902369 1.68342 1.29289 1.29289ZM7.0434 13.4801C7.02759 13.2121 6.80759 13 6.53915 13H1.59193C1.29807 13 1.06661 13.2527 1.10748 13.5437C1.70586 17.8045 4.74523 21.282 8.76616 22.5169C9.20798 22.6526 9.54063 22.1304 9.30256 21.7343C9.14714 21.4757 9.00052 21.2076 8.86294 20.9324C7.86414 18.9349 7.21201 16.3372 7.0434 13.4801ZM21.9112 16.7774C21.767 17.076 21.3733 17.1307 21.1388 16.8962L7.10379 2.86115C6.86934 2.6267 6.92399 2.23299 7.22256 2.08881C8.66738 1.39109 10.288 1 12 1C18.0751 1 23 5.92487 23 12C23 13.712 22.6089 15.3326 21.9112 16.7774Z" clip-rule="evenodd"></path></svg>