<svg xmlns="http://www.w3.org/2000/svg" data-name="Layer 1" viewBox="0 0 32 32" id="online-stats"><path fill="#1b1a1c" d="M21.83,17.38a1,1,0,0,1-.75-.34c-.83-.95-2.08-2.31-3.81-4.16a1,1,0,0,1,1.46-1.36c1.75,1.86,3,3.23,3.85,4.2a1,1,0,0,1-.09,1.41A1,1,0,0,1,21.83,17.38Z"></path><path fill="#1b1a1c" d="M14,17c-3.54,0-5.8-5.38-5.8-8.2a5.8,5.8,0,1,1,11.6,0C19.8,11.62,17.54,17,14,17ZM14,5a3.8,3.8,0,0,0-3.8,3.8c0,2.28,1.88,6.2,3.8,6.2s3.8-3.92,3.8-6.2A3.8,3.8,0,0,0,14,5Z"></path><path fill="#1b1a1c" d="M16,25H12.29a8.06,8.06,0,0,1-6.91-3.86A2.78,2.78,0,0,1,5,19.71a2.85,2.85,0,0,1,.37-1.41,51.19,51.19,0,0,1,4.28-4.56c1,1.8,2.51,3.26,4.35,3.26,3.54,0,5.8-5.38,5.8-8.2a5.8,5.8,0,1,0-11.6,0,9.4,9.4,0,0,0,.58,3c-4.07,4.1-4.89,5.1-5.13,5.51A4.75,4.75,0,0,0,3,19.71a4.84,4.84,0,0,0,.66,2.45A10.07,10.07,0,0,0,12.29,27H16a1,1,0,0,0,0-2ZM14,5a3.8,3.8,0,0,1,3.8,3.8c0,2.28-1.88,6.2-3.8,6.2-1.21,0-2.4-1.56-3.12-3.28a.61.61,0,0,0-.05-.12,8,8,0,0,1-.63-2.8A3.8,3.8,0,0,1,14,5Z"></path><path fill="#6d6e71" d="M24,29a5,5,0,1,1,5-5A5,5,0,0,1,24,29Zm0-8a3,3,0,1,0,3,3A3,3,0,0,0,24,21Z"></path></svg>