<svg xmlns="http://www.w3.org/2000/svg" data-name="Layer 1" viewBox="0 0 512 512" id="terms-condition"><path d="M193.31,293.5h115a7.5,7.5,0,0,0,0-15h-115a7.5,7.5,0,0,0,0,15Zm0,60h100a7.5,7.5,0,0,0,0-15h-100a7.5,7.5,0,1,0,0,15Zm0-120h115a7.5,7.5,0,0,0,0-15h-115a7.5,7.5,0,0,0,0,15ZM220.8,45.15a7.5,7.5,0,1,0-7.5-7.5A7.5,7.5,0,0,0,220.8,45.15ZM193.31,173.5h115a7.5,7.5,0,0,0,0-15h-115a7.5,7.5,0,0,0,0,15Zm-60,255a22.5,22.5,0,1,0-22.5-22.5A22.53,22.53,0,0,0,133.31,428.5Zm0-30a7.5,7.5,0,1,1-7.5,7.5A7.51,7.51,0,0,1,133.31,398.5Zm0-210a22.5,22.5,0,1,0-22.5-22.5A22.53,22.53,0,0,0,133.31,188.5Zm0-30a7.5,7.5,0,1,1-7.5,7.5A7.51,7.51,0,0,1,133.31,158.5Zm342.48-23.65a22.5,22.5,0,0,0-41.33-4.5l-8.17,14.9h0l-20,36.47V97.5A37.54,37.54,0,0,0,368.8,60H298.7a27.11,27.11,0,0,0-20.89-9.82h-9.1a48.81,48.81,0,0,0-.52-9.64A48,48,0,0,0,172.85,48c0,.74,0,1.49.05,2.23h-9.1A27.11,27.11,0,0,0,142.91,60H72.8A37.54,37.54,0,0,0,35.3,97.5v377A37.54,37.54,0,0,0,72.8,512h296a37.54,37.54,0,0,0,37.5-37.5V275.37L473.92,152A22.32,22.32,0,0,0,475.79,134.85ZM368.8,75a22.52,22.52,0,0,1,22.5,22.5V209.1l-30.5,55.66V112.5a7.5,7.5,0,0,0-7.5-7.5H305V77.33c0-.78,0-1.56-.11-2.33ZM151.64,77.33A12.17,12.17,0,0,1,163.8,65.18h17.74a7.51,7.51,0,0,0,7.28-9.3,32.93,32.93,0,0,1,9.82-32.31A32.72,32.72,0,0,1,224,15.15a33,33,0,0,1,28.75,40.73,7.51,7.51,0,0,0,7.28,9.3h17.74A12.17,12.17,0,0,1,290,77.33v28.84a12.17,12.17,0,0,1-12.16,12.15h-114a12.17,12.17,0,0,1-12.16-12.15Zm12.16,56h114A27.17,27.17,0,0,0,301.17,120H345.8V292.13L311,355.72a8,8,0,0,0-.44,1,1.46,1.46,0,0,0-.07.19,8,8,0,0,0-.28,1v0L302.8,398.5H193.31a7.5,7.5,0,1,0,0,15h115l.41,0,.34,0a7.48,7.48,0,0,0,5.1-2l31.64-29.35V452H95.8V120h44.64A27.17,27.17,0,0,0,163.8,133.32ZM323.05,370.91l8.06,4.41-10.65,9.88ZM391.3,474.5A22.52,22.52,0,0,1,368.8,497H72.8a22.53,22.53,0,0,1-22.5-22.5V97.5A22.53,22.53,0,0,1,72.8,75h64c-.07.77-.11,1.55-.11,2.33V105H88.3a7.5,7.5,0,0,0-7.5,7.5v347a7.5,7.5,0,0,0,7.5,7.5h265a7.5,7.5,0,0,0,7.5-7.5V358.4l30.5-55.66Zm.91-204.63h0l-51.34,93.68-13.16-7.2,32.12-58.62a1.28,1.28,0,0,0,.11-.2l45.4-82.85.1-.17L435.84,159,449,166.25Zm68.56-125.11-4.57,8.34-13.15-7.21,4.57-8.33a7.5,7.5,0,1,1,13.15,7.2ZM133.31,368.5a22.5,22.5,0,1,0-22.5-22.5A22.53,22.53,0,0,0,133.31,368.5Zm0-30a7.5,7.5,0,1,1-7.5,7.5A7.51,7.51,0,0,1,133.31,338.5Zm0-30a22.5,22.5,0,1,0-22.5-22.5A22.53,22.53,0,0,0,133.31,308.5Zm0-30a7.5,7.5,0,1,1-7.5,7.5A7.51,7.51,0,0,1,133.31,278.5Zm0-30a22.5,22.5,0,1,0-22.5-22.5A22.53,22.53,0,0,0,133.31,248.5Zm0-30a7.5,7.5,0,1,1-7.5,7.5A7.51,7.51,0,0,1,133.31,218.5Z"></path></svg>