<svg xmlns="http://www.w3.org/2000/svg" viewBox="0 0 33.91 29.12" id="widgets"><g data-name="Layer 2"><path d="M30.92 2.17a.82.82 0 01.82.81v7.34a.82.82 0 01-.82.81H23.59a.81.81 0 01-.81-.81V3a.81.81 0 01.81-.81h7.33m0-2.17H23.59a3 3 0 00-3 3v7.34a3 3 0 003 3h7.33a3 3 0 003-3V3a3 3 0 00-3-3zM30.92 18a.82.82 0 01.82.81v7.34a.82.82 0 01-.82.81H23.59a.81.81 0 01-.81-.81V18.8a.81.81 0 01.81-.81h7.33m0-2.17H23.59a3 3 0 00-3 3v7.34a3 3 0 003 3h7.33a3 3 0 003-3V18.8a3 3 0 00-3-3zM14.27 2.45a1 1 0 011.13.92V25.74a1 1 0 01-1.13.93H4.13A1 1 0 013 25.74V3.37a1 1 0 011.13-.92H14.27m0-2.45H4.13C1.85 0 0 1.51 0 3.37V25.74c0 1.86 1.85 3.38 4.13 3.38H14.27c2.28 0 4.13-1.52 4.13-3.38V3.37C18.4 1.51 16.55 0 14.27 0z" data-name="Layer 1"></path></g></svg>